<mxfile host="app.diagrams.net" modified="2021-06-28T13:18:09.859Z" agent="5.0 (Macintosh; Intel Mac OS X 10_15_7) AppleWebKit/537.36 (KHTML, like Gecko) Chrome/91.0.4472.114 Safari/537.36" etag="p-HKZ7Kx1hCGGytSbPMi" version="14.8.2" type="github">
  <diagram id="MeDqkyc_opjWS5qdO1ft" name="Page-1">
    <mxGraphModel dx="886" dy="591" grid="1" gridSize="10" guides="1" tooltips="1" connect="1" arrows="1" fold="1" page="1" pageScale="1" pageWidth="827" pageHeight="1169" math="0" shadow="0">
      <root>
        <mxCell id="0" />
        <mxCell id="1" parent="0" />
        <mxCell id="8nlyie-1W3Vb_Dug9uBG-1" value="" style="rounded=1;whiteSpace=wrap;html=1;" vertex="1" parent="1">
          <mxGeometry x="50" y="130" width="710" height="360" as="geometry" />
        </mxCell>
        <mxCell id="8nlyie-1W3Vb_Dug9uBG-9" style="edgeStyle=orthogonalEdgeStyle;rounded=0;orthogonalLoop=1;jettySize=auto;html=1;entryX=0.45;entryY=-0.033;entryDx=0;entryDy=0;entryPerimeter=0;" edge="1" parent="1" source="8nlyie-1W3Vb_Dug9uBG-2" target="8nlyie-1W3Vb_Dug9uBG-5">
          <mxGeometry relative="1" as="geometry" />
        </mxCell>
        <mxCell id="8nlyie-1W3Vb_Dug9uBG-11" style="edgeStyle=orthogonalEdgeStyle;rounded=0;orthogonalLoop=1;jettySize=auto;html=1;entryX=0.5;entryY=0;entryDx=0;entryDy=0;" edge="1" parent="1" source="8nlyie-1W3Vb_Dug9uBG-2" target="8nlyie-1W3Vb_Dug9uBG-6">
          <mxGeometry relative="1" as="geometry" />
        </mxCell>
        <mxCell id="8nlyie-1W3Vb_Dug9uBG-12" style="edgeStyle=orthogonalEdgeStyle;rounded=0;orthogonalLoop=1;jettySize=auto;html=1;" edge="1" parent="1" source="8nlyie-1W3Vb_Dug9uBG-2" target="8nlyie-1W3Vb_Dug9uBG-4">
          <mxGeometry relative="1" as="geometry" />
        </mxCell>
        <mxCell id="8nlyie-1W3Vb_Dug9uBG-2" value="FTF&lt;br&gt;- &lt;i&gt;Rest API&#39;s&lt;br&gt;&lt;/i&gt;- Variable model params" style="rounded=1;whiteSpace=wrap;html=1;" vertex="1" parent="1">
          <mxGeometry x="310" y="280" width="120" height="60" as="geometry" />
        </mxCell>
        <mxCell id="8nlyie-1W3Vb_Dug9uBG-7" style="edgeStyle=orthogonalEdgeStyle;rounded=0;orthogonalLoop=1;jettySize=auto;html=1;" edge="1" parent="1" source="8nlyie-1W3Vb_Dug9uBG-3" target="8nlyie-1W3Vb_Dug9uBG-2">
          <mxGeometry relative="1" as="geometry" />
        </mxCell>
        <mxCell id="8nlyie-1W3Vb_Dug9uBG-3" value="Input Payload" style="ellipse;whiteSpace=wrap;html=1;" vertex="1" parent="1">
          <mxGeometry x="310" y="140" width="120" height="80" as="geometry" />
        </mxCell>
        <mxCell id="8nlyie-1W3Vb_Dug9uBG-4" value="Dynamic SL" style="rounded=1;whiteSpace=wrap;html=1;" vertex="1" parent="1">
          <mxGeometry x="90" y="400" width="120" height="60" as="geometry" />
        </mxCell>
        <mxCell id="8nlyie-1W3Vb_Dug9uBG-5" value="CLV" style="rounded=1;whiteSpace=wrap;html=1;" vertex="1" parent="1">
          <mxGeometry x="320" y="410" width="120" height="60" as="geometry" />
        </mxCell>
        <mxCell id="8nlyie-1W3Vb_Dug9uBG-6" value="FFC" style="rounded=1;whiteSpace=wrap;html=1;" vertex="1" parent="1">
          <mxGeometry x="580" y="400" width="120" height="60" as="geometry" />
        </mxCell>
      </root>
    </mxGraphModel>
  </diagram>
</mxfile>
